# xmcd CD database file
#
# Track frame offsets:
#	150
#	11949
#	21436
#	39581
#	51167
#	64379
#	73993
#	85600
#	96484
#	102321
#	117084
#	123237
#
# Disc length: 1820 seconds
#
# Revision: 3
# Processed by: cddbd v1.5.1PL0 Copyright (c) Steve Scherf et al.
# Submitted via: CDex 1.51
#
DISCID=ab071a0c
DTITLE=Baden Powell - Um Violão na Madrugada
DYEAR=1961
DGENRE=MPB
TTITLE0=Do Jeito que a Gente quer
TTITLE1=Minha Palhoça
TTITLE2=Fluido de Saudade
TTITLE3=Luz Negra
TTITLE4=Insônia
TTITLE5=Improviso em Bossa Nova
TTITLE6=Lição de Baião
TTITLE7=Dona Baratinha
TTITLE8=Prelúdio ao Coração
TTITLE9=Luar de Agosto
TTITLE10=Dum...dum...dum...dum
TTITLE11=Linda
EXTD=YEAR: 1961
EXTT0=
EXTT1=
EXTT2=
EXTT3=
EXTT4=
EXTT5=
EXTT6=
EXTT7=
EXTT8=
EXTT9=
EXTT10=
EXTT11=
PLAYORDER=
